<?xml version="1.0" encoding="utf-8"?>
<!-- Generator: Adobe Illustrator 21.0.0, SVG Export Plug-In . SVG Version: 6.00 Build 0)  -->
<svg version="1.1" id="Layer_1" xmlns="http://www.w3.org/2000/svg" xmlns:xlink="http://www.w3.org/1999/xlink" x="0px" y="0px"
	 viewBox="0 0 2351.2 324.4" style="enable-background:new 0 0 2351.2 324.4;" xml:space="preserve">
<style type="text/css">
	.st0{fill:#FFFFFF;}
</style>
<g>
	<path class="st0" d="M644.4,11.1c0-1.8-0.6-4.1-2.6-5.7S637,3,632.9,3H592c-12.5,0.2-16.7,11.8-16.8,12l2.1,0.8l-2.2-0.6
		l-73.5,254.6c-5.2,0.1-22.5,0.4-53.3,0.4c-37.6-0.3-50.4-11.4-50.6-31.7c0-5.8,1.1-12.4,3.3-19.7l30.5-92.7
		c5.5-19.3,9.1-37.9,9.1-54.6c0-19.5-5-36.8-17.9-49.1S389.3,3.1,359,3.1H233.4C150.2,3,95.3,31.5,76.4,97.3
		c-3,10.5-4.4,19.7-4.4,27.8c-0.1,22.2,10.9,36.3,26.7,44.6c23.7,12.6,58.3,14.1,86.9,17.7c14.3,1.8,27.1,4,35.9,8.2
		c8.9,4.3,13.7,9.6,13.7,18.7c0,2.7-0.5,5.8-1.4,9.3c-8.6,30-40.8,44.8-78.3,44.9c-0.5,0-100.8,0-112,0c-12.3,0-18.5,8.3-18.7,8.6
		l-22,35.2c-0.7,0.8-2.7,2.9-2.9,6.1c-0.1,1.7,1,3.7,2.9,4.6c1.8,1,4.2,1.4,7.7,1.4c14.2,0,130.1,0,130.1,0h1.9l0,0
		c88.2-0.4,142.5-37.8,159.4-96.5c3.7-12.7,5.3-23.7,5.3-33.4c0.1-24-10.7-39.6-26.5-49.2c-23.6-14.4-58.1-16.7-86.6-20
		c-14.2-1.6-27-3.4-35.8-6.8c-8.9-3.5-13.5-7.9-13.5-15.3c0-1.9,0.3-4.1,1-6.5c8.4-28.1,23.7-38.6,67.2-38.9c1.7,0,3.5,0,5.4,0.1
		c9.8,0.2,19.1,0.3,27.8,0.3c31.1,0,55.8-1,74.9-1c18.8,0,32.1,1,40.1,4.5c7.9,3.6,11.1,8.8,11.2,19.6c0,8.5-2.4,20.1-6.9,35.7
		l-35.2,109.6c-3.3,11.4-4.8,21.4-4.8,30.3c-0.1,25.6,12.9,42.1,31.9,51.4c19,9.4,43.9,12.3,69.1,12.3h113.7
		c14.6-0.1,18.8-13.5,18.8-13.7l84.1-290.8C643.6,15.2,644.4,13.4,644.4,11.1z"/>
	<path class="st0" d="M861.2,103.9c0.8,1.3,1.7,2.9,4,3.1c2.8-0.3,3.6-2.2,4.8-4.3c3-6.1,13.7-41,13.8-41.1
		c1.2-4.2,1.8-8.3,1.9-12.2C885.4,20.6,853.2,3,799.5,3h-102c-11.4,0.1-15.8,9.6-15.9,9.8l-0.1,0.2l-84.9,293.6
		c-0.3,0.6-1.2,2.7-1.2,5.3c0,1.9,0.6,4.3,2.6,6s4.9,2.6,9.1,2.6h40.5c14.3-0.1,17.8-13.6,17.8-13.8L737,58.2h50.4
		c63.2,0.4,68.9,33,71.6,40.2C859.7,100.6,860.4,102.5,861.2,103.9z"/>
	<path class="st0" d="M1140.2,18.9C1121.7,6.6,1094.3,0,1057.7,0c-84.1-0.1-142.1,35.5-163.2,95.5L876.4,157l-18.5,64
		c-2.9,9.8-4.3,19.1-4.3,27.8c-0.1,24.2,9.8,46.1,31.8,56.7c59.9,28.8,199.1,23.3,216.6-7.1c2-3.4,3.9-7,5.2-11.2
		c0-0.1,10.4-35.1,11.3-41.9c0.2-2.5,0.5-4.5-1.6-6.2c-2-1.2-3.6-0.4-5,0.3c-1.5,0.8-3,1.9-4.9,3.4c-38,35.9-189.1,35.1-177.7-9.2
		l12.3-51.3c16.3,6.1,39.9,11.9,60.6,11.9c98.6,0.1,146.9-44.8,161.6-96c2.8-9.6,4.2-18.8,4.2-27.4
		C1168,49.2,1158.7,31.1,1140.2,18.9z M1091.7,97.1c-7.6,26-29.2,41.1-83,41.2c-19.9,0-44.2-7.8-51.3-10.4l4.2-14.5
		c11.5-38.8,30.1-60.4,80.9-60.6c38.5,0.3,51.4,12.1,51.5,30.1C1093.9,87.3,1093.1,92,1091.7,97.1z"/>
	<path class="st0" d="M1471.6,19.1c0.1-0.3,0.3-0.7,0.4-1c0.4-1.3,0.6-2.6,0.6-3.9c0-0.7-0.1-1.4-0.2-2c-0.6-3.8-3.3-8-9.7-9.1
		c-0.7-0.1-1.3-0.2-2-0.2H1416c-7-0.2-13.8,6-15.8,10.8L1275,257c-1,1.9-1.7,3-2.2,3.6c0-0.1,0-0.3,0-0.4l11.9-243.8
		c0-0.4,0-0.8,0-1.2l0,0c-0.6-8.3-6.6-12.2-12-12.2h-44.5c-6.8-0.2-13.4,4.4-15.7,11.1c-0.4,1.2-0.6,2.5-0.6,3.7
		c0,0.3-0.1,0.7-0.1,1l-7,254.3c0,0.9-0.1,1.9-0.1,3c0.1,19.1,6.4,32.3,19.3,40.5c8.3,5.1,19,7.6,32.8,7.6c0.1,0,0.2,0,0.3,0
		c22-0.2,53.9-5.5,76.7-47.9l136.6-255.2C1470.9,20.5,1471.3,19.8,1471.6,19.1z"/>
	<path class="st0" d="M2008.8,17.3L2008.8,17.3c-17.4-10.3-41.9-15.5-72.7-15.5c-0.1,0-0.2,0-0.2,0c-30.3,0-59.1,2.1-83.5,5.8
		c-9.1,1.7-17.6,4.2-21.8,17.4L1751,304c-0.3,1-0.6,3.1-0.6,4.1c0,0.6,0.1,1.2,0.1,1.7c1.3,7.7,6.6,10,10.9,10.5
		c0.5,0.1,0.9,0.1,1.4,0.1h39.2c0.3,0,0.7,0,1,0c7.1,0,14.4-5.9,16.2-13.2l25.6-87.2c1.8,0.1,3.8,0.2,5.8,0.3c9,0.6,19.4,1.2,27,1.2
		c82.7-0.3,136.9-37.3,156.6-107l1.1-4c3.6-12.8,5.4-24.7,5.4-35.4C2040.4,49,2030.1,30.1,2008.8,17.3z M1965.1,107.5l-1.1,4
		c-8.9,32.8-31.4,48.1-71,48.1h-1.5c-5.4,0-19.8-0.5-29.5-0.9l26.2-93.1c9.3-0.7,25.5-1.3,33.5-1.3c16.8,0,28.2,2.1,36,6.7
		c8.5,4.9,10.2,13.3,10.1,19.6C1967.8,95.5,1966.9,101,1965.1,107.5z"/>
	<path class="st0" d="M1650.1,134.6c0-23.3-6.9-41.9-20.6-55.2c-14.3-13.9-35.1-21-61.8-21.1l0,0c-65.1,0-117.9,43.6-137.8,113.6
		l-10,35.5c-4.1,14.4-6.1,28.1-6.1,40.5c0,23.3,6.9,41.9,20.6,55.2c14.3,14,35.1,21.1,61.8,21.1c65.1,0,117.9-43.6,137.8-113.6
		l10-35.5C1648,160.6,1650.1,147,1650.1,134.6z M1576.5,171.9l-10,35.5c-9.5,34.3-30.5,54.8-56.3,54.8c-6.1,0-14.5-1.2-19.9-7.1
		c-4.3-4.6-6.5-11.6-6.5-20.7c0-6.9,1.3-14.9,3.7-23.7l10-35.5c9.5-34.3,30.5-54.7,56.2-54.7h0.1c6.1,0,14.6,1.2,20,7.1
		c4.3,4.6,6.5,11.6,6.5,20.7C1580.2,155.1,1578.9,163,1576.5,171.9z"/>
	<path class="st0" d="M1796.4,15.4c0-0.6-0.1-1.5-0.2-2.1c-0.6-3.9-3-8.7-10.7-9.8c-0.5-0.1-1-0.1-1.6-0.1h-38.8
		c-7.9-0.5-15.5,5.7-17.2,12.8l-83.5,288.6c-0.3,1-0.6,3.2-0.6,4.3c0,0.5,0.1,1.1,0.1,1.6c1.2,7.8,6.6,10.1,10.9,10.7
		c0.5,0.1,0.9,0.1,1.4,0.1h38.6c0.4,0,0.8,0.1,1.2,0.1c7.4,0,15.1-6.3,16.6-13.2l83.3-288.9C1796.1,18.4,1796.4,16.3,1796.4,15.4z"
		/>
	<path class="st0" d="M2219,0c-73,0-132.2,59.2-132.2,132.1c0,73,59.2,132.2,132.2,132.2s132.1-59.2,132.2-132.2
		C2351.2,59.2,2292,0,2219,0z M2300.9,214c-21,21-49.9,33.9-81.8,33.9c-32,0-60.9-13-81.8-33.9c-21-21-33.9-49.9-33.9-81.9
		s12.9-60.9,33.9-81.8c21-21,49.9-33.9,81.8-33.9c32,0,60.9,12.9,81.8,33.9c21,21,33.9,49.9,33.9,81.8
		C2334.8,164.2,2321.8,193,2300.9,214z"/>
	<path class="st0" d="M2316.7,111c-14.5-39.3-51-62.5-90.1-62.5c-35.7,0-58.2,27.5-86.9,56.7c-0.8,1.6-1.1,3.2,0.6,4.9l24,24
		c1.2,1.2,1.9,1.2,3,0l36.6-36.6c16.7-16.7,31.4-20.7,47.1-20.7c30.5,0,47.6,13.8,62.7,35.8c2.3,3.3,3.4,2.8,3.4,2.8
		S2318.1,114.9,2316.7,111z"/>
	<path class="st0" d="M2185,130.8l-9.9,9.9c-1.2,1.2-1.2,3.1,0,4.3l9.9,9.9c1.2,1.2,3.1,1.2,4.3,0l9.9-9.9c1.2-1.2,1.2-3.1,0-4.3
		l-9.9-9.9C2188.1,129.6,2186.2,129.6,2185,130.8z"/>
	<path class="st0" d="M2206.3,109.5l-9.9,9.9c-1.2,1.2-1.2,3.1,0,4.3l9.9,9.9c1.2,1.2,3.1,1.2,4.3,0l9.9-9.9c1.2-1.2,1.2-3.1,0-4.3
		l-9.9-9.9C2209.4,108.3,2207.4,108.3,2206.3,109.5z"/>
	<path class="st0" d="M2231.8,88.2c-1.2-1.2-3.1-1.2-4.3,0l-9.9,9.9c-1.2,1.2-1.2,3.1,0,4.3l9.9,9.9c1.2,1.2,3.1,1.2,4.3,0l9.9-9.9
		c1.2-1.2,1.2-3.1,0-4.3L2231.8,88.2z"/>
	<path class="st0" d="M2273.8,130.1c-1.2-1.2-1.9-1.2-3,0l-36.6,36.6c-16.7,16.7-31.4,20.7-47.1,20.7c-30.5,0-47.7-13.8-62.7-35.8
		c-2.2-3.3-3.4-2.8-3.4-2.8s-1,0.6,0.4,4.5c14.5,39.3,51,62.5,90.1,62.5c35.7,0,58.2-27.5,86.9-56.7c0.8-1.6,1.1-3.2-0.5-4.9
		L2273.8,130.1z"/>
	<path class="st0" d="M2206.3,152l-9.9,9.9c-1.2,1.2-1.2,3.1,0,4.3l9.9,9.9c1.2,1.2,3.1,1.2,4.3,0l9.9-9.9c1.2-1.2,1.2-3.1,0-4.3
		l-9.9-9.9C2209.4,150.9,2207.4,150.9,2206.3,152z"/>
	<path class="st0" d="M2231.8,154.9l9.9-9.9c1.2-1.2,1.2-3.1,0-4.3l-9.9-9.9c-1.2-1.2-3.1-1.2-4.3,0l-9.9,9.9
		c-1.2,1.2-1.2,3.1,0,4.3l9.9,9.9C2228.7,156,2230.7,156,2231.8,154.9z"/>
	<path class="st0" d="M2253.1,133.6l9.9-9.9c1.2-1.2,1.2-3.1,0-4.3l-9.9-9.9c-1.2-1.2-3.1-1.2-4.3,0l-9.9,9.9
		c-1.2,1.2-1.2,3.1,0,4.3l9.9,9.9C2250,134.8,2251.9,134.8,2253.1,133.6z"/>
</g>
</svg>
